<svg width="19" height="35" viewBox="0 0 19 35" fill="none" xmlns="http://www.w3.org/2000/svg">
<path d="M13.8 0C14.7 0 15.7 0.1 16.6 0.1C17.2 0.1 17.8 0.2 18.4 0.3V5.9C18.2 5.9 18.1 5.9 18 5.9C17.4 5.9 16.8 5.9 16.1 5.9C15.6 5.9 15.2 5.9 14.7 5.9C13.2 5.9 12.1 6.5 12 8.4C12 9.7 11.9 12.7 11.9 12.9C12 12.9 13.5 12.9 14.9 12.9C15.6 12.9 16.4 12.9 16.9 12.9C17.3 12.9 17.7 12.9 18.1 12.9C17.8 15.1 17.5 17.1 17.2 19.2H11.9L11.8 35H5.2L5.3 19.2H0V12.9H5.4V12.4C5.4 11.1 5.4 9.9 5.4 8.6C5.4 7.8 5.5 7 5.6 6.2C6 4.2 6.9 2.6 8.6 1.5C10 0.5 11.6 0.1 13.3 0C13.5 0 13.6 0 13.8 0Z"/>
</svg>
