<svg width="42" height="26" viewBox="0 0 42 26" fill="none" xmlns="http://www.w3.org/2000/svg">
<path d="M13.6513 0C15.8513 0 17.8513 0.599997 19.7513 1.7C21.0513 2.4 21.7513 3.19999 22.0513 3.39999C20.7513 4.69999 19.5513 5.9 18.2513 7.2C17.3513 6.4 16.2513 5.59999 14.4513 5.39999C14.0513 5.29999 13.7513 5.3 13.3513 5.3C9.75131 5.3 6.75131 7.9 5.85131 11.3C5.65131 12.1 5.65131 12.9 5.65131 13.6C5.95131 16.8 8.05131 19.4 10.9513 20.3C11.6513 20.5 12.4513 20.6 13.2513 20.6C13.4513 20.6 13.6513 20.6 13.7513 20.6C15.1513 20.5 16.3513 20.2 17.5513 19.4C19.4513 18.1 20.1513 16 20.1513 15.5C19.7513 15.5 13.5513 15.5 13.2513 15.5C13.2513 15.3 13.2513 12.1 13.2513 10.5V10.3C17.3513 10.3 21.3513 10.3 25.4513 10.3C26.1513 14.1 25.5513 18.1 23.1513 21.2C21.5513 23.4 19.3513 24.7 16.7513 25.4C15.5513 25.7 14.4513 25.8 13.2513 25.8C12.9513 25.8 12.7513 25.8 12.4513 25.8C9.95131 25.7 7.65132 24.9 5.55132 23.3C2.95132 21.4 1.25132 18.8 0.55132 15.6C0.25132 14.4 0.251308 13.3 0.351308 12.1C0.551308 9.3 1.45132 6.9 3.25132 4.7C5.05132 2.4 7.45132 0.999995 10.2513 0.299995C10.9513 0.0999954 11.6513 0 12.3513 0C12.8513 0 13.2513 0 13.6513 0Z" fill="#183042"/>
<path d="M36.7514 6V6.1V10.5H41.1514H41.2514V10.7V13.9V14.1H41.0514H36.7514L36.6514 18.5V18.6H36.5514H33.2514H33.1514V18.5V14.1H28.7514H28.6514V13.9V10.7V10.5H28.8514H33.2514V6.1V6H33.3514H36.6514H36.7514Z" fill="#183042"/>
</svg>
