<svg width="32" height="31" viewBox="0 0 32 31" fill="none" xmlns="http://www.w3.org/2000/svg">
<path d="M24.103 5.3999C25.103 5.3999 26.003 6.1999 26.003 7.2999C26.003 8.2999 25.203 9.1999 24.103 9.1999C23.103 9.1999 22.303 8.3999 22.303 7.2999C22.203 6.2999 23.103 5.3999 24.103 5.3999Z" fill="#183042"/>
<path d="M31.1031 7.8C31.3031 10.2 31.5031 21.8 30.8031 24.5C29.8031 28 27.5031 30.1 24.0031 30.7C22.7031 30.9 19.1031 31 15.5031 31C11.8031 31 8.10307 30.9 6.90307 30.5C3.40307 29.6 1.30307 27.3 0.703071 23.7C0.303071 21.1 0.203074 8.9 1.00307 6.3C2.00307 2.9 4.30306 0.9 7.80306 0.3C9.40306 -5.96046e-08 12.5031 0 15.6031 0C18.5031 0 21.4031 0.0999999 23.2031 0.2C25.3031 0.3 27.3031 1 28.9031 2.5C30.1031 4 30.9031 5.8 31.1031 7.8ZM28.1031 23.3C28.5031 20.6 28.5031 10.6 28.3031 8.1C28.0031 5.4 26.4031 3.6 23.7031 3.2C22.4031 3 19.2031 2.9 16.0031 2.9C12.9031 2.9 9.80307 3 8.50307 3.1C5.80307 3.4 4.00307 5.1 3.50307 7.8C3.10307 10.6 3.10307 21.3 3.40307 23.4C3.70307 25.6 5.00307 27.2 7.20307 27.8C8.40307 28.1 12.0031 28.3 15.5031 28.3C18.8031 28.3 21.9031 28.2 23.1031 28.1C25.8031 27.7 27.6031 26 28.1031 23.3Z" fill="#183042"/>
<path d="M15.803 7.6001C20.203 7.6001 23.703 11.2001 23.703 15.6001C23.703 20.0001 20.103 23.5001 15.703 23.5001C11.303 23.5001 7.80298 19.9001 7.80298 15.5001C7.80298 11.2001 11.403 7.6001 15.803 7.6001ZM15.703 20.7001C18.503 20.7001 20.803 18.4001 20.903 15.6001C20.903 12.8001 18.703 10.4001 15.903 10.4001C13.103 10.4001 10.803 12.7001 10.703 15.5001C10.603 18.3001 12.803 20.7001 15.703 20.7001Z" fill="#183042"/>
</svg>
