<svg width="79" height="100" viewBox="0 0 79 100" fill="none" xmlns="http://www.w3.org/2000/svg">
<path d="M7.52393 100H78.9211L77.6057 94.5835C76.9218 91.8225 74.4489 89.5874 72.1339 89.5874H14.3374C11.9961 89.5874 9.54956 91.8225 8.83928 94.5835L7.52393 100Z" fill="#52A4E3"/>
<path d="M38.3555 50.1444C38.1713 50.1444 37.9609 50.0655 37.8293 49.934L28.8586 40.9674C28.5693 40.6782 28.5693 40.2049 28.8586 39.9156L59.6904 9.12416C59.9798 8.83492 60.4533 8.83492 60.7427 9.12416L69.7134 18.0908C69.8449 18.2222 69.9238 18.4063 69.9238 18.6167C69.9238 18.8007 69.8449 19.0111 69.7134 19.1426L38.8553 49.934C38.7238 50.0655 38.5396 50.1444 38.3555 50.1444Z" fill="#52A4E3"/>
<path d="M39.1446 86.3788C38.9604 86.3788 38.7763 86.2999 38.6185 86.1685L27.3328 74.8879C27.0434 74.5987 27.0434 74.1254 27.3328 73.8361C27.6221 73.5469 28.0957 73.5469 28.385 73.8361L39.1446 84.5908L53.7713 69.9708V43.7546L46.8525 36.839C46.5632 36.5498 46.5632 36.0765 46.8525 35.7872C47.1419 35.498 47.6154 35.498 47.9048 35.7872L55.034 42.9132C55.1655 43.0447 55.2445 43.2287 55.2445 43.4391V70.2863C55.2445 70.4704 55.1655 70.6807 55.034 70.8122L39.6707 86.1685C39.5129 86.2999 39.3287 86.3788 39.1446 86.3788Z" fill="#183042"/>
<path d="M53.7715 88.2462C53.5873 88.2462 53.4032 88.1673 53.2454 88.0358C52.956 87.7465 52.956 87.2732 53.2454 86.984L65.4255 74.8094V38.943L55.0868 28.6091C54.7975 28.3198 54.7975 27.8465 55.0868 27.5573C55.3762 27.268 55.8497 27.268 56.1391 27.5573L66.7145 38.1279C66.8461 38.2593 66.925 38.4434 66.925 38.6538V75.1512C66.925 75.3353 66.8461 75.5457 66.7145 75.6771L54.3239 88.0621C54.1398 88.1673 53.9556 88.2462 53.7715 88.2462Z" fill="#183042"/>
<path d="M24.518 88.2462C24.3339 88.2462 24.1497 88.1673 23.9919 88.0359L10.8384 74.8884C10.549 74.5991 10.549 74.1258 10.8384 73.8366C11.1277 73.5473 11.6013 73.5473 11.8907 73.8366L25.0441 86.9841C25.3335 87.2733 25.3335 87.7466 25.0441 88.0359C24.8863 88.1673 24.7022 88.2462 24.518 88.2462Z" fill="#183042"/>
<path d="M74.8435 99.0006H3.68309C3.44632 99.0006 3.23587 98.8954 3.10433 98.7114C2.9728 98.5273 2.92018 98.2906 2.9728 98.0803L4.4986 92.348C5.36673 89.2189 8.31312 86.7734 11.2332 86.7734H67.2671C70.1871 86.7734 73.1598 89.2189 74.0017 92.3217L75.5275 98.0803C75.5801 98.2906 75.5275 98.5273 75.3959 98.7114C75.2644 98.8954 75.0539 99.0006 74.8435 99.0006ZM4.65645 97.5281H73.8701L72.6074 92.7161C71.9497 90.2707 69.5558 88.2723 67.2934 88.2723H11.2332C8.97079 88.2723 6.57686 90.2707 5.91918 92.7161L4.65645 97.5281Z" fill="#183042"/>
<path d="M65.9518 14.3571C65.7676 14.3571 65.5835 14.2782 65.4256 14.1467C65.1362 13.8575 65.1362 13.3842 65.4256 13.0949L72.9494 5.57454L69.1349 1.76177L61.6111 9.28214C61.3217 9.57138 60.8482 9.57138 60.5588 9.28214C60.2695 8.99289 60.2695 8.51958 60.5588 8.23034L68.6088 0.184065C68.7666 0.078885 68.9508 0 69.1349 0C69.3191 0 69.5295 0.078885 69.661 0.21036L74.5015 5.04864C74.6331 5.18012 74.712 5.36418 74.712 5.57454C74.712 5.75861 74.6331 5.96897 74.5015 6.10044L66.4516 14.1467C66.3201 14.2782 66.1359 14.3571 65.9518 14.3571Z" fill="#183042"/>
<path d="M29.7006 50.5656C29.5165 50.5656 29.3323 50.4867 29.1745 50.3552L24.334 45.5169C24.2025 45.3855 24.1235 45.2014 24.1235 44.991C24.1235 44.807 24.2025 44.5966 24.334 44.4651L26.4122 42.3878C26.7016 42.0986 27.1751 42.0986 27.4645 42.3878C27.7539 42.6771 27.7539 43.1504 27.4645 43.4396L25.8861 45.0173L29.7006 48.8301L31.279 47.2524C31.5684 46.9632 32.0419 46.9632 32.3313 47.2524C32.6207 47.5417 32.6207 48.015 32.3313 48.3042L30.2531 50.3815C30.0952 50.513 29.9111 50.5656 29.7006 50.5656Z" fill="#183042"/>
<path d="M35.4619 48.9349C35.2778 48.9349 35.0673 48.856 34.9358 48.7245L25.9651 39.7579C25.6757 39.4687 25.6757 38.9954 25.9651 38.7061L56.7969 7.91469C57.0862 7.62544 57.5598 7.62544 57.8492 7.91469L66.8198 16.8813C66.9514 17.0128 67.0303 17.1968 67.0303 17.4072C67.0303 17.5913 66.9514 17.8016 66.8198 17.9331L35.988 48.7245C35.8302 48.856 35.6461 48.9349 35.4619 48.9349ZM27.5435 39.232L35.4619 47.1468L65.2414 17.3809L57.323 9.46609L27.5435 39.232Z" fill="#183042"/>
<path d="M30.0426 72.5216H0.736596C0.341991 72.5216 0 72.1797 0 71.7853V69.0243C0 68.6299 0.341991 68.2881 0.736596 68.2881H30.0426C30.4372 68.2881 30.7792 68.6299 30.7792 69.0243V71.7853C30.7792 72.1797 30.4372 72.5216 30.0426 72.5216ZM1.47319 71.0491H29.306V69.7606H1.47319V71.0491Z" fill="#183042"/>
<path d="M39.2501 97.0551C37.0403 97.0551 35.2251 95.2671 35.2251 93.032C35.2251 90.8232 37.014 89.0352 39.2501 89.0352C41.4599 89.0352 43.2487 90.8232 43.2487 93.032C43.275 95.2671 41.4862 97.0551 39.2501 97.0551ZM39.2501 90.5077C37.8558 90.5077 36.6983 91.6384 36.6983 93.032C36.6983 94.4256 37.8295 95.5826 39.2501 95.5826C40.6443 95.5826 41.8018 94.4519 41.8018 93.032C41.8018 91.6384 40.6706 90.5077 39.2501 90.5077Z" fill="#183042"/>
<path d="M45.7216 33.7892C42.9331 33.7892 40.6707 31.5278 40.6707 28.7405C40.6707 25.9533 42.9331 23.6919 45.7216 23.6919C48.5101 23.6919 50.7725 25.9533 50.7725 28.7405C50.7462 31.5278 48.4838 33.7892 45.7216 33.7892ZM45.7216 25.1907C43.7486 25.1907 42.1438 26.7947 42.1438 28.7668C42.1438 30.739 43.7486 32.343 45.7216 32.343C47.6946 32.343 49.2993 30.739 49.2993 28.7668C49.273 26.7947 47.6683 25.1907 45.7216 25.1907Z" fill="#183042"/>
</svg>
