<?xml version="1.0" encoding="utf-8"?>
<!-- Generator: Adobe Illustrator 25.2.1, SVG Export Plug-In . SVG Version: 6.00 Build 0)  -->
<svg version="1.1" id="Слой_1" xmlns="http://www.w3.org/2000/svg" xmlns:xlink="http://www.w3.org/1999/xlink" x="0px" y="0px"
	 viewBox="0 0 118 100" style="enable-background:new 0 0 118 100;" xml:space="preserve">
<style type="text/css">
	.st0{fill:#52A4E3;}
	.st1{fill:#183042;}
</style>
<path class="st0" d="M112.7,78.4c2.7-11.5-4.4-23.1-15.9-25.8c-11.5-2.7-23,4.4-25.8,16C68.3,80.1,75.5,91.6,87,94.4
	C98.5,97.1,110,89.9,112.7,78.4z"/>
<path class="st1" d="M88.9,94.4c-12.9,0-23.4-10.5-23.4-23.5c0-0.4,0.3-0.7,0.7-0.7c0.4,0,0.7,0.3,0.7,0.7c0,12.1,9.8,22,21.9,22
	c12.1,0,21.9-9.9,21.9-22c0-12.1-9.8-22-21.9-22c-0.4,0-0.7-0.3-0.7-0.7c0-0.4,0.3-0.7,0.7-0.7c12.9,0,23.4,10.5,23.4,23.5
	C112.3,83.9,101.8,94.4,88.9,94.4z"/>
<path class="st1" d="M71.7,56.9c-0.2,0-0.3-0.1-0.5-0.2c-0.3-0.3-0.3-0.7-0.1-1c2.8-3.3,6.5-5.7,10.5-7.1c0.4-0.1,0.8,0.1,0.9,0.5
	c0.1,0.4-0.1,0.8-0.5,0.9c-3.8,1.3-7.2,3.5-9.9,6.6C72.1,56.8,71.9,56.9,71.7,56.9z"/>
<path class="st1" d="M67,66c-0.1,0-0.1,0-0.2,0c-0.4-0.1-0.6-0.5-0.5-0.9c0.5-1.8,1.2-3.6,2.1-5.3c0.2-0.4,0.6-0.5,1-0.3
	c0.4,0.2,0.5,0.6,0.3,1c-0.8,1.6-1.5,3.2-1.9,5C67.6,65.8,67.3,66,67,66z"/>
<path class="st0" d="M47.5,38.4c2.7-11.5-4.4-23.1-15.9-25.8c-11.5-2.7-23,4.4-25.8,16c-2.7,11.5,4.4,23.1,15.9,25.8
	C33.3,57.1,44.8,49.9,47.5,38.4z"/>
<path class="st1" d="M23.8,54.4C10.9,54.4,0.4,43.9,0.4,31c0-0.4,0.3-0.7,0.7-0.7c0.4,0,0.7,0.3,0.7,0.7c0,12.1,9.8,22,21.9,22
	c12.1,0,21.9-9.9,21.9-22c0-12.1-9.8-22-21.9-22C23.3,9,23,8.6,23,8.2c0-0.4,0.3-0.7,0.7-0.7C36.6,7.5,47.1,18,47.1,31
	C47.1,43.9,36.6,54.4,23.8,54.4z"/>
<path class="st1" d="M6.5,16.9c-0.2,0-0.3-0.1-0.5-0.2c-0.3-0.3-0.3-0.7-0.1-1c2.8-3.3,6.5-5.7,10.5-7.1c0.4-0.1,0.8,0.1,0.9,0.5
	c0.1,0.4-0.1,0.8-0.5,0.9c-3.8,1.3-7.2,3.5-9.9,6.6C6.9,16.8,6.8,16.9,6.5,16.9z"/>
<path class="st1" d="M1.8,26c-0.1,0-0.1,0-0.2,0c-0.4-0.1-0.6-0.5-0.5-0.9c0.5-1.8,1.2-3.6,2.1-5.3c0.2-0.4,0.6-0.5,1-0.3
	c0.4,0.2,0.5,0.6,0.3,1c-0.8,1.6-1.5,3.2-1.9,5C2.4,25.8,2.1,26,1.8,26z"/>
<g>
	<path class="st1" d="M92.2,1.2c-0.3,0-0.6,0.1-0.8,0.4L18,97.3c-0.2,0.3-0.3,0.7-0.1,1c0.3,0.6,1.2,0.7,1.6,0.2L93,2.7
		c0.2-0.3,0.3-0.7,0.1-1S92.6,1.2,92.2,1.2z"/>
</g>
</svg>
